<?xml version="1.0" encoding="UTF-8"?>
<svg id="Layer_1" xmlns="http://www.w3.org/2000/svg" version="1.1" viewBox="0 0 1920 1080">
  <!-- Generator: Adobe Illustrator 30.1.0, SVG Export Plug-In . SVG Version: 2.1.1 Build 136)  -->
  <defs>
    <style>
      .st0 {
        fill: #fff;
      }
    </style>
  </defs>
  <path class="st0" d="M1457.71,566.28c20.19-4.29,43.89,10.52,43.84,32.02l-.29,128.08c-.15,64.51-36.84,123.61-95.63,149.8-39.19,17.46-84.63,16.17-122.82-2.64-55.59-27.38-89.93-84.77-90.06-147.15l-.26-128.09c-.05-21.98,23.12-35.05,43.34-32.7l74.11,101.58c5.83,7.99-.8,30.47-2.33,40.63-3.99,26.65,14.09,48.84,37.41,49.83,25.08,1.07,45.95-21.04,41.63-49.49-1.55-10.2-3.78-27.61-3.97-38.31l75.03-103.57Z"/>
  <path class="st0" d="M679.86,421.18l46.47-39.86,11.02,18.78,22.49-73.58,130.99,14.19-16.67-117.17-12.07,83.15-94.78-10,36.31-130.01c83.56,12.64,53.55,15.38,139.11-1.43l89.59,304.29-116.67,14.41-18.86-106.37-44.12-1.29-17.95,108.2-114.77-12.48,6.12-34.65-236.86,48.9-4.39-25.26,195.04-39.84Z"/>
  <path class="st0" d="M1748.12,357.76l-33.18,80.76-54.18-.05-44.09-82.75-7.45,123.44-114.6-10.89,51.99-306.53,138.19,118.65,143.24-117.51,22.58,307.65-78.26,7.57-24.26-120.33ZM1551.31,272.52c24.85-3.53,39.36-23.66,35.72-46.72-17.61,10.45-39.28,22.87-35.72,46.72ZM1820.46,267.67c-1.4-21.19-21.49-35.55-37.22-42.17-5.18,21.73,15.24,49.24,37.22,42.17ZM1624.71,289.4c-18.09-13.56-42.4-18.72-63.41-.7,19.05,9.68,41.15,9.17,63.41.7ZM1808.89,287.27c-21.12-17.37-45.18-13.18-61.09,1.15,20.84,9.5,42.74,8.27,61.09-1.15ZM1626.8,344.35c6.48-35.9,49.75-33.78,55.2-46.49.9-2.11-4.47-5.85-6.55-4.88l-6.34,2.98c-22.71,7.41-40.59,19.61-51.77,40.89l-4.5,8.57c-.99,1.89,13.61.85,13.96-1.08ZM1741.41,343.41c.52,2.13,14.39,3.65,13.43,1.69l-4.58-9.29c-18.4-37.32-62.11-41.63-61.68-42.64l-3.22,7.65c-2,4.75,46.87,4.9,56.06,42.59ZM1727.57,351.81c2.28-13.8-10.8-29.07-20.13-32.66-12.97-4.98-29.15-6.36-41.83-1.55-14.97,5.68-25.34,18.12-25.3,32.36.04,12.82,10.82,26.19,25.03,30.95,24.43,8.19,57.16,1.57,62.23-29.11Z"/>
  <path class="st0" d="M124.35,475.95l40.47-145.27,132.01,13.84-16.57-116.53-12.14,82.7-94.72-10.06,36.66-130.52c87.46,15.78,56.2,13.56,138.7-.61l85.9,290.77c8.58-2.39,23.28-3.84,27.29,1.25,2.03,2.57-1.02,15.58-4.22,15.27l-18.57-1.79-117.23,12.59-19.38-106.59-44-.63-17.46,108.12-116.75-12.54Z"/>
  <path class="st0" d="M674.08,882.67l-116.9-12.71,41.04-144.67,131.96,13.91-14.96-115.17-12.97,81.24-95.53-10.26,38.39-130.85c85.82,17.28,56.75,13.97,138.38.61l87.58,304.21-116.44,14.27-18.69-106.95-44.1-2.03-17.77,108.4Z"/>
  <path class="st0" d="M1304.52,352.91c-8.77-2.22-5.1,7.71.6,9.47,7.35.27,17.61-1.03,17.83,2.35l1.11,16.5c.29,4.31-9.23,4.48-18.6,5.39-6.12,1.34-10.34,10.51-.99,9.04,8.73.87,18.92.03,18.94,3.72l.11,16.54c.07,10.27-24.85-4.97-24.68,12.87.05,4.92,24.38-.73,24.39,4.9v17.28c.01,3.69-11.04,2.92-15.35,3.88l-8.76,1.97c-1.59.36-1.57,5.99.02,6.33l8.3,1.75,16.01,3.49c3.58.78-.51,17.1-4.57,16.77l-81.37-6.55c-68.37,21.79-134.72,1.35-176.23-56.85-42.44-59.51-41.57-140.73,1.07-200.11,54.36-75.69,160.5-86.82,226.18-20.85l-71.83,59.77-16.02-31.35c-3.23-6.33-16.29-14.44-23.08-14.77-46.81-2.27-58.56,140.4-5.83,161.24,20,7.91,38.7-24.43,42.37-44.48l-23.37-4.31-1.17-30.4,131.16,33.16,3.53,16.61c.9,4.21-9.49,5.15-19.79,6.66ZM1182.9,471.68l48.05-38.78-48.7-37.56-46.15,38.28,46.81,38.06Z"/>
  <path class="st0" d="M1145.17,763.71l14.47,2c4.01.55,4.4,11.3,4.18,15.77-.19,4.02-8.95,6.07-14.42,6.68l-9.41,1.05c-1.59.18-2.93,5.66-1.36,5.98l11.69,2.39c6.41,1.31,13.72,5.16,13.95,9.88.38,7.64-6.65,15.98-12.76,16l-11.39.04c-1.55,0-2.95,5.96-1.45,6.22l11.9,2.09c8.78,1.55,13.09,5.57,13.48,16.37.55,15.54-68.55,8.51-18.74,18.53l16.74,3.37c3.61.73-.11,13.91-1.65,17.15l-85.34-7.1c-66.59,20.88-132.86.21-173.64-56.86-43.65-61.09-42.05-144.66,3.58-204.48,55.73-73.06,160.34-81.69,223.96-16.2l-72.76,59.61-16.55-34.2c-3.15-6.52-17.96-13.43-24.63-12.65-46.07,5.37-54.19,143.7-2.43,161.72,19.38,6.75,37.43-25.54,41.3-44.55-10.05-2.6-20.89-1.92-22.54-6.33-1.99-5.33-1.63-18.41-.7-28.19l120.94,30.96c5.39,1.38,12.88,8.47,12.97,13.43.14,6.82-10.9,12.34-18.56,12.47-4.76.08-7.92-.48-8.06.93s0,5,.21,6.43c.21,1.42,3.57,1.01,7.02,1.49ZM1022.34,872.69l47.04-38.4-47.38-38.02-47.16,38,47.5,38.42Z"/>
  <path class="st0" d="M1720.55,618.34l-39.24-20.49c42.09-32.41,102.17-18.29,155.22-19.13l-50.4,303.99-55.88.77-94.55-115.35-13.25,86.16-82.61-6.6,1.25-281.31,177.9,207.8c1.76-11.34,2.41-26.35,1.85-37.61l-37.34-18.95,37.33-20.02-37.39-20.08,38.17-20.17-38.45-19.63,37.39-19.39ZM1792.79,637.48l-41.32-19.6-1.71,39.12,43.03-19.52ZM1790.05,677.4l-40.55-19.33-3.02,39.11,43.57-19.77ZM1745.94,737.62l40.64-20.71-40.02-18-7.87,77.94,42.56-19.24-35.3-19.98Z"/>
  <path class="st0" d="M314.54,856.29c-32.31-22.35-50.98-50.84-52.36-91.08l60.55-1.35c4.92,32.42,29.95,46.68,59.57,48.87,31.05,2.29,59.12-16.99,62.04-49.65l18.07-201.77,90.94.26,4.15,197.36c.92,43.65-20.57,81.73-58.95,104.16-55.63,32.51-129.5,30.9-184.01-6.81ZM526.2,602.02c-15.42-6.99-31.5-7.95-44.27,1.79,15.28,6.69,32.01,7.29,44.27-1.79ZM526.08,635.63c-16.43-5.6-30.03-5.25-44.26-.3,13.28,12.17,31.15,11.35,44.26.3Z"/>
  <path class="st0" d="M189.09,862.7l-.23-44.99c-16.8-3.78-22.61-5.8-35.05-16.53-7.9,17.8-9.82,40.37-13.31,61.13s-8.4,39.78-6.78,62.59c.69,9.66-3.53,19.25-11.31,26.26-5.14,4.63-20.36,3.44-24.02-2.91,29.94-43.1,11.61-36.84,17.75-98.31,2.26-22.62,3.55-46.71,3.18-66.8-9.8-1.4-14.14-1.98-17.79-2.8-4.24-.96-1.45-13.97,1-18.45,10.96-20.04,43.19-100.42,24.64-114.17l-45.91,49.63-5,259.26c-17.45-35.42-3.42-71.26-4.8-107.26-1.84-48.27,2.89-97.1-3.46-144.25-2.37-17.57-1-23.93,1.99-39.87,8.47-45.2.07-94.43,4.04-141.53,6.01-71.38-14.19-82.78,5.67-123.48,12.59,22.08,5.9,43.46,5.08,66.3-2.34,64.68-3.1,124.81-1.8,191.42l17.26-31.21c4.52-8.18,10.18-23.27,14.18-31.77l34.19-14.38c-1.86-19.24-14.15-69.98,16.85-70.03,11.97-.02,24.4,7.93,25.44,21.49,1.37,17.76-2.14,31.92-8.8,48.84l29.83,15.94,10.52,32.6c4.02,12.44,4.47,21.52,5.49,35.67,1.97,27.34,13.37,53.52,21.83,82.26,2.66,9.02-7.46,23.6-12.3,31.2-2.07,3.24-.23,16.07-3.91,16.28-3.68.21-11.95-1.14-16.86-2.03.32,36.67-.31,72.57-4.53,109.32-4.04,35.11,20.92,29.73,31.68,46.57,1.84,2.87-10.02,5.84-13.43,4.85l-39.21-11.42c1.35-29.19-1.95-50.14-2.1-79.4ZM227.01,761.38c8.96-26.88-3.38-47.19-15.57-68.77l-11-31.47c-13.6,3.77,12.73,95.37,26.56,100.24Z"/>
  <polygon class="st0" points="1483.68 478.41 1359.19 480.78 1364.15 162.4 1454.95 161.52 1483.68 478.41"/>
  <path class="st0" d="M711.81,353.03c4.25-1.02,13.67,10.1,12.16,13.05l-6.42,12.51-45.05,38.08-188.15,37.62-34.35-279.33,131.38,9.44-12.26,202.92,142.7-34.28ZM499.64,218.49c-4.08,14.85-4.7,35.12,2.52,50.93,11.17,12.11,7.74-76.48-2.52-50.93ZM537.24,217.36c-1.16,2.1-4.05,7.12-5.11,9.37-.58,12.79-.65,29.35,6.76,42.87,9.08,2.15,6.72-67.44-1.65-52.24ZM555.06,286.92c-24.02-4.89-46.29-4.66-67.16,3.73,24.42,6.31,46.62,4.16,67.16-3.73ZM555.39,319.26c-24.37-7.97-45.26-7.71-68.39-.26,24.11,6.27,45.2,6.12,68.39.26Z"/>
  <polygon class="st0" points="1758.77 193.93 1686.75 257.18 1609.76 193.65 1758.77 193.93"/>
  <path class="st0" d="M409.85,779.83c-14.94,17.48-42.04,17.05-57.42.6,15.37-15.47,38.55-16.77,57.42-.6Z"/>
  <path class="st0" d="M1706.81,456.27c5.18,12.4-5.28,22.1-14.32,22.35-8.6.23-21.14-4.93-20.22-17.03.37-4.77,7.76-12.13,12.09-13.27,5.2-1.37,20.19,2.59,22.44,7.96Z"/>
  <path class="st0" d="M635.92,220.58c-6.64-.13-15.44-10.49-14.12-15.24s10.73-11.79,16.8-11.61c6.39.19,15.23,7.09,16.15,11.78,1.3,6.64-6.91,15.29-18.83,15.07Z"/>
  <path class="st0" d="M464.32,421.37c2.93,4.06-5.24,13.65-10.1,14.82-7.29,1.76-21.3-4.37-18.9-13.8.98-3.87,8.59-10,12.4-10.64,3.81-.64,12.37,3.75,16.6,9.63Z"/>
  <path class="st0" d="M1715.26,339.74c3.9,6.24.51,22.71-4.42,26.85-15.31,12.87-38.92,12.82-54.24-.64-5.35-4.7-7.18-21.75-2.77-27.8,14.65-20.16,46.37-22.53,61.43,1.58Z"/>
</svg>